<svg width="34" height="34" viewBox="0 0 34 34" fill="none" xmlns="http://www.w3.org/2000/svg">
<path d="M12.4927 15.5351C12.383 15.5351 12.2757 15.5681 12.1846 15.6297C12.0934 15.6914 12.0224 15.7791 11.9806 15.8815C11.9389 15.984 11.9281 16.0968 11.9498 16.2054C11.9715 16.3141 12.0247 16.4138 12.1025 16.4919C12.1804 16.57 12.2794 16.623 12.3871 16.6441C12.4948 16.6653 12.6063 16.6536 12.7074 16.6106C12.8085 16.5676 12.8948 16.4953 12.9551 16.4027C13.0155 16.3101 13.0473 16.2015 13.0465 16.0907C13.0465 16.0174 13.0321 15.9448 13.0043 15.8771C12.9764 15.8095 12.9355 15.748 12.884 15.6964C12.8325 15.6448 12.7715 15.6039 12.7043 15.5762C12.6371 15.5485 12.5652 15.5346 12.4927 15.5351Z" fill="#6A6A6A"/>
<path d="M17.9378 15.4779C17.856 15.4711 17.7736 15.4815 17.6959 15.5085C17.6181 15.5354 17.5468 15.5784 17.4864 15.6346C17.4259 15.6909 17.3777 15.7592 17.3447 15.8352C17.3117 15.9112 17.2946 15.9934 17.2946 16.0764C17.2946 16.1594 17.3117 16.2415 17.3447 16.3176C17.3777 16.3936 17.4259 16.4619 17.4864 16.5181C17.5468 16.5744 17.6181 16.6174 17.6959 16.6443C17.7736 16.6713 17.856 16.6817 17.9378 16.6748C18.0865 16.6624 18.225 16.594 18.326 16.4831C18.427 16.3723 18.4831 16.2271 18.4831 16.0764C18.4831 15.9257 18.427 15.7805 18.326 15.6697C18.225 15.5588 18.0865 15.4904 17.9378 15.4779Z" fill="#6A6A6A"/>
<path d="M22.8616 10H11.1385C10.8573 10 10.5789 10.056 10.3192 10.1649C10.0595 10.2737 9.82353 10.4333 9.6249 10.6344C9.42627 10.8355 9.26884 11.0742 9.16161 11.3368C9.05438 11.5995 8.99947 11.8809 9 12.165V19.1912C8.99947 19.4753 9.05438 19.7567 9.16161 20.0194C9.26884 20.282 9.42627 20.5207 9.6249 20.7218C9.82353 20.9229 10.0595 21.0825 10.3192 21.1913C10.5789 21.3002 10.8573 21.3562 11.1385 21.3562H15.2779L16.6847 24.7059C16.6847 24.7059 16.7817 25 17.0162 25C17.2506 25 17.3476 24.7059 17.3476 24.7059L18.7585 21.3562H22.8575C23.4257 21.3562 23.9707 21.1281 24.3725 20.7221C24.7743 20.3161 25 19.7654 25 19.1912V12.165C25 11.5915 24.7748 11.0415 24.3739 10.6356C23.973 10.2297 23.4291 10.0011 22.8616 10ZM14.0288 16.2132C14.0288 17.5 12.7069 17.5368 12.7069 17.5368C12.5564 17.5392 12.4069 17.5104 12.2678 17.452C12.1288 17.3937 12.003 17.3071 11.8984 17.1977V17.4265H10.9444V13.4396H11.8984V14.9673C12.1248 14.5588 12.7756 14.5833 12.7756 14.5833C14.2067 14.7141 14.0288 16.2132 14.0288 16.2132ZM15.7145 14.7018V17.4346H14.7767V14.7304C14.7767 14.3627 14.3239 14.2606 14.3239 14.2606V13.3047C14.5093 13.2908 14.6956 13.3174 14.87 13.3826C15.0444 13.4477 15.2029 13.55 15.3348 13.6825C15.4667 13.815 15.5688 13.9746 15.6343 14.1504C15.6998 14.3263 15.7272 14.5143 15.7145 14.7018ZM17.9379 17.5368C17.6566 17.5137 17.3881 17.4083 17.1652 17.2335C16.9423 17.0586 16.7747 16.8219 16.6829 16.5523C16.591 16.2827 16.579 15.9919 16.6482 15.7154C16.7174 15.439 16.8648 15.1889 17.0725 14.9959C17.2801 14.8028 17.539 14.6751 17.8173 14.6284C18.0957 14.5817 18.3815 14.6179 18.6397 14.7328C18.898 14.8477 19.1175 15.0362 19.2714 15.2751C19.4253 15.5141 19.507 15.7933 19.5063 16.0784C19.4885 16.4816 19.3135 16.8612 19.0196 17.1344C18.7258 17.4076 18.3369 17.5523 17.9379 17.5368ZM23.0677 17.5368C23.0723 17.7214 23.0393 17.9051 22.9707 18.0764C22.9022 18.2476 22.7995 18.4028 22.6691 18.5322C22.5387 18.6617 22.3833 18.7627 22.2127 18.829C22.0421 18.8952 21.8598 18.9254 21.6771 18.9175H21.2729V18.0188H21.5276C21.5276 18.0188 22.1137 18.0719 22.1056 17.161C22.1056 17.161 21.9924 17.5286 21.1718 17.5286C20.8596 17.512 20.5653 17.3763 20.3484 17.1488C20.1315 16.9213 20.0082 16.619 20.0035 16.3031V15.866C20.0189 15.5234 20.1629 15.1996 20.4063 14.9605C20.6496 14.7215 20.974 14.5851 21.3133 14.5793C21.4675 14.5695 21.6217 14.5979 21.7626 14.6619C21.9035 14.726 22.0268 14.8238 22.1218 14.9469V14.6528H23.0718L23.0677 17.5368Z" fill="#6A6A6A"/>
<path d="M21.5801 15.4902C21.4648 15.4894 21.3519 15.5232 21.2556 15.5873C21.1593 15.6515 21.0841 15.743 21.0394 15.8505C20.9947 15.9579 20.9826 16.0763 21.0046 16.1907C21.0266 16.305 21.0817 16.4102 21.163 16.4929C21.2442 16.5756 21.348 16.632 21.461 16.655C21.574 16.6781 21.6913 16.6666 21.7979 16.6222C21.9045 16.5778 21.9956 16.5025 22.0598 16.4057C22.1239 16.3088 22.1582 16.1949 22.1582 16.0784C22.1587 16.0014 22.1441 15.925 22.1153 15.8536C22.0865 15.7823 22.044 15.7174 21.9903 15.6627C21.9366 15.608 21.8727 15.5646 21.8023 15.535C21.7319 15.5054 21.6563 15.4902 21.5801 15.4902Z" fill="#6A6A6A"/>
</svg>
