<svg width="34" height="34" viewBox="0 0 34 34" fill="none" xmlns="http://www.w3.org/2000/svg">
<path d="M17 13C16.2089 13 15.4355 13.2346 14.7777 13.6741C14.1199 14.1136 13.6072 14.7384 13.3045 15.4693C13.0017 16.2002 12.9225 17.0044 13.0769 17.7804C13.2312 18.5563 13.6122 19.269 14.1716 19.8284C14.731 20.3878 15.4437 20.7688 16.2196 20.9231C16.9956 21.0775 17.7998 20.9983 18.5307 20.6955C19.2616 20.3928 19.8864 19.8801 20.3259 19.2223C20.7654 18.5645 21 17.7911 21 17C21 15.9391 20.5786 14.9217 19.8284 14.1716C19.0783 13.4214 18.0609 13 17 13ZM17 19.4C16.5253 19.4 16.0613 19.2592 15.6666 18.9955C15.272 18.7318 14.9643 18.357 14.7827 17.9184C14.601 17.4799 14.5535 16.9973 14.6461 16.5318C14.7387 16.0662 14.9673 15.6386 15.3029 15.3029C15.6386 14.9673 16.0662 14.7387 16.5318 14.6461C16.9973 14.5535 17.4799 14.601 17.9184 14.7827C18.357 14.9643 18.7318 15.272 18.9955 15.6666C19.2592 16.0613 19.4 16.5253 19.4 17C19.4 17.6365 19.1471 18.247 18.6971 18.6971C18.247 19.1471 17.6365 19.4 17 19.4ZM21 12.2C20.8418 12.2 20.6871 12.2469 20.5555 12.3348C20.424 12.4227 20.3214 12.5477 20.2609 12.6939C20.2003 12.84 20.1845 13.0009 20.2154 13.1561C20.2462 13.3113 20.3224 13.4538 20.4343 13.5657C20.5462 13.6776 20.6887 13.7538 20.8439 13.7846C20.9991 13.8155 21.16 13.7997 21.3061 13.7391C21.4523 13.6786 21.5773 13.576 21.6652 13.4445C21.7531 13.3129 21.8 13.1582 21.8 13C21.8 12.7878 21.7157 12.5843 21.5657 12.4343C21.4157 12.2843 21.2122 12.2 21 12.2ZM24.952 13.992C24.9387 13.3083 24.8089 12.632 24.568 11.992C24.3446 11.4097 24.0013 10.8808 23.5602 10.4398C23.1192 9.99872 22.5903 9.65537 22.008 9.432C21.368 9.19112 20.6917 9.06125 20.008 9.048C19.232 9 18.976 9 17 9C15.024 9 14.768 9 13.992 9.048C13.3083 9.06125 12.632 9.19112 11.992 9.432C11.4097 9.65537 10.8808 9.99872 10.4398 10.4398C9.99872 10.8808 9.65537 11.4097 9.432 11.992C9.19112 12.632 9.06125 13.3083 9.048 13.992C9 14.776 9 15.032 9 17C9 18.968 9 19.224 9.048 20.008C9.06125 20.6917 9.19112 21.368 9.432 22.008C9.65537 22.5903 9.99872 23.1192 10.4398 23.5602C10.8808 24.0013 11.4097 24.3446 11.992 24.568C12.632 24.8089 13.3083 24.9387 13.992 24.952C14.792 24.952 15.024 25 17 25C18.976 25 19.232 25 20.008 24.952C20.6917 24.9387 21.368 24.8089 22.008 24.568C22.5903 24.3446 23.1192 24.0013 23.5602 23.5602C24.0013 23.1192 24.3446 22.5903 24.568 22.008C24.8089 21.368 24.9387 20.6917 24.952 20.008C24.952 19.208 25 18.968 25 17C25 15.032 25 14.776 24.952 13.992ZM23.352 19.936C23.338 20.4437 23.2435 20.9459 23.072 21.424C22.9302 21.8019 22.7061 22.1435 22.416 22.424C22.1371 22.7143 21.7949 22.9361 21.416 23.072C20.9368 23.2505 20.4312 23.3478 19.92 23.36C19.168 23.36 18.936 23.4 16.992 23.4C15.048 23.4 14.824 23.4 14.072 23.4C13.5616 23.3868 13.0566 23.2923 12.576 23.12C12.1981 22.9782 11.8565 22.7541 11.576 22.464C11.2857 22.1851 11.0639 21.8429 10.928 21.464C10.7502 20.9874 10.6529 20.4845 10.64 19.976C10.64 19.176 10.64 18.976 10.64 17.04C10.64 15.104 10.64 14.872 10.64 14.104C10.6538 13.593 10.7511 13.0876 10.928 12.608C11.066 12.2325 11.2876 11.8933 11.576 11.616C11.8549 11.3257 12.1971 11.1039 12.576 10.968C13.0552 10.7895 13.5608 10.6922 14.072 10.68C14.824 10.6 15.056 10.6 17 10.6C18.944 10.6 19.176 10.6 19.928 10.6C20.4417 10.6131 20.9498 10.7104 21.432 10.888C21.8075 11.026 22.1467 11.2476 22.424 11.536C22.7143 11.8149 22.9361 12.1571 23.072 12.536C23.2678 13.0229 23.3788 13.5397 23.4 14.064C23.4 14.864 23.44 15.064 23.44 17C23.44 18.936 23.4 19.168 23.4 19.936H23.352Z" fill="#6A6A6A"/>
</svg>
