<svg width="34" height="34" viewBox="0 0 34 34" fill="none" xmlns="http://www.w3.org/2000/svg">
<path d="M24.9963 15.2292C25.0323 14.1188 24.8047 13.0167 24.3349 12.0253C24.0161 11.6185 23.5737 11.344 23.0848 11.2495C21.0625 11.0537 19.0317 10.9734 17.0014 11.0091C14.9784 10.9718 12.955 11.0495 10.9397 11.2418C10.5413 11.3191 10.1726 11.5186 9.87858 11.8158C9.22445 12.4597 9.15177 13.5613 9.07909 14.4922C8.97364 16.166 8.97364 17.8454 9.07909 19.5191C9.10012 20.0431 9.17321 20.5631 9.29713 21.0706C9.38477 21.4624 9.56207 21.8249 9.81317 22.1256C10.1092 22.4386 10.4865 22.6494 10.8961 22.7307C12.4631 22.9372 14.0419 23.0227 15.6204 22.9867C18.1643 23.0255 20.3956 22.9867 23.0339 22.7695C23.4536 22.6932 23.8415 22.4821 24.1459 22.1644C24.3494 21.9472 24.5014 21.6812 24.5893 21.3887C24.8492 20.5374 24.9769 19.6464 24.9672 18.7511C24.9963 18.3167 24.9963 15.6946 24.9963 15.2292ZM15.3588 19.2166V14.4146L19.6615 16.8272C18.455 17.5409 16.8633 18.3477 15.3588 19.2166Z" fill="#6A6A6A"/>
</svg>
